# xmcd
#
# Track frame offsets: 
#        150
#        13075
#        25344
#        41791
#        63211
#        79862
#        101027
#        122689
#        139475
#        156093
#        172328
#        191153
#
# Disc length: 2792 seconds
#
# Revision: 0
# Processed by: cddbd v1.5.2PL0 Copyright (c) Steve Scherf et al.
# Submitted via: ExactAudioCopyFreeDBPlugin 1.0
#
DISCID=ac0ae60c
DTITLE=Pusha T - My Name is My Name
DYEAR=2013
DGENRE=Hip-Hop
TTITLE0=King Push
TTITLE1=Numbers on the Boards
TTITLE2=Sweet Serenade (featuring Chris Brown) 
TTITLE3=Hold On (featuring Rick Ross)
TTITLE4=Suicide (featuring Ab-Liva)
TTITLE5=40 Acres (featuring The-Dream)
TTITLE6=No Regrets (featuring Jeezy and Kevin Cossom)
TTITLE7=Let Me Love You (featuring Kelly Rowland)
TTITLE8=Who I Am (featuring 2 Chainz and Big Sean)
TTITLE9=Nosetalgia (featuring Kendrick Lamar)
TTITLE10=Pain (featuring Future)
TTITLE11=S.N.I.T.C.H. (featuring Pharrell)
EXTD=
EXTT0=
EXTT1=
EXTT2=
EXTT3=
EXTT4=
EXTT5=
EXTT6=
EXTT7=
EXTT8=
EXTT9=
EXTT10=
EXTT11=
PLAYORDER=
